<?xml version="1.0" standalone="no"?><!DOCTYPE svg PUBLIC "-//W3C//DTD SVG 1.1//EN" "http://www.w3.org/Graphics/SVG/1.1/DTD/svg11.dtd"><svg class="icon" width="200px" height="200.00px" viewBox="0 0 1024 1024" version="1.1" xmlns="http://www.w3.org/2000/svg"><path d="M592.303 557c23.215 0.107 46.23 9.084 63.319 24.803 16.199 14.899 26.948 35.637 29.661 57.541 4.034 32.576-10.249 66.696-36.581 86.634-16.068 12.166-36.067 18.928-56.399 19.022-53.636 0.09-107.273 0.245-160.908-0.002-37.465-0.299-73.441-24.844-87.078-60.063-12.529-32.353-5.49-71.408 18.393-97.457 17.363-18.935 42.631-30.279 68.707-30.476 53.628-0.257 107.257-0.092 160.886-0.002z m-160.291 32c-24.63 0.037-48.489 15.84-57.717 39.325-7.31 18.605-4.944 40.709 6.284 57.328 11.196 16.572 30.576 27.182 51.017 27.346 53.602 0.246 107.206 0.246 160.808 0 26.869-0.215 52.56-19.647 59.549-46.122 7.29-27.622-6.854-59.531-33.761-72.093-8.045-3.757-16.901-5.712-25.788-5.783-53.464-0.246-106.928-0.001-160.392-0.001z" fill="#FFE59D" /><path d="M210.702 908.385C233.591 762.633 359.862 651 512 651c152.121 0 278.381 111.608 301.29 257.337a199.939 199.939 0 0 1-160.159 9.224C606.61 900.276 556.468 887 512 887s-94.61 13.276-141.115 30.604a199.984 199.984 0 0 1-160.183-9.219z" fill="#6AF5E3" fill-opacity=".5" /><path d="M168 255.101v-86.114c0.103-32.604 21.821-64.115 52.954-75.297 8.821-3.169 18.178-4.718 27.562-4.688 26.448 0.251 52.474 14.408 66.876 36.873 8.199 12.789 12.56 28.036 12.608 43.112v43.862c17.909 1.657 35.564 5.296 52.723 9.923 51.838 13.918 104.415 26.343 159.396 20.65 37.63-3.897 74.578-12.711 111.178-22.778a247.428 247.428 0 0 1 44.703-7.77v-43.887c0.105-32.658 21.867-64.132 52.954-75.297 8.821-3.169 18.178-4.718 27.562-4.688 32.506 0.308 64.122 22.031 75.12 53.876 2.896 8.387 4.336 17.271 4.364 26.109v86.015c54.282 37.17 93.351 95.948 104.823 163.127 9.329 54.631 8.868 111.142 3.924 167.018-6.28 70.981-21.455 140.999-44.153 208.803-18.369 54.874-59.399 101.868-112.641 125.809-47.357 21.295-102.606 24.037-152.028 7.282-7.688-2.607-15.276-5.557-22.975-8.185-48.008-16.386-98.646-27.74-148.342-22.279-37.193 4.088-73.604 14.748-108.771 27.723-52.146 19.24-111.285 17.887-161.604-5.317-50.013-23.062-90.253-66.86-108.857-119.13-7.198-20.222-13.204-40.801-18.76-61.512-22.292-83.09-33.737-169.501-29.995-255.301 1.469-33.686 4.686-67.51 14.913-99.245 16.754-51.988 51.345-97.663 96.466-128.694z m139.078-27.225c-71.751 0.272-143.259 35.764-186.53 94.723-22.897 31.199-37.463 68.347-42.936 106.484-5.607 39.074-6.58 78.913-4.817 118.635 3.611 81.317 19.511 162.14 45.133 239.341 15.749 47.452 48.714 88.686 92.685 112.256 47.604 25.516 105.948 29.637 156.919 10.999 47.504-17.54 96.45-31.653 146.089-31.308 47.812 0.332 95.103 13.69 140.089 30.24 39.873 14.669 84.471 16.841 125.109 4.409 56.305-17.225 103.552-61.51 124.069-117.471 6.517-17.774 11.79-35.857 16.842-54.017 22.011-79.129 33.778-161.167 32.139-243.422-0.946-47.479-5.73-95.468-25.597-137.666-26.885-57.103-78.103-102.336-138.362-121.855-42.424-13.742-88.622-14.832-131.658-3.346-41.881 11.328-83.995 21.71-127.163 24.533-38.924 2.546-77.952-4.367-116.246-13.128-25.364-5.803-50.008-14.084-74.543-17.364a234.887 234.887 0 0 0-31.222-2.043zM312 211.924v-42.911c-0.067-21.115-11.226-41.906-28.864-53.515-17.196-11.319-40.017-13.66-59.326-5.771-23.296 9.519-39.73 33.81-39.81 59.286v75.96a241.738 241.738 0 0 1 56.002-23.705c0.025-14.835 0.231-29.672-0.004-44.505-0.133-5.982-5.225-11.397-11.295-11.743a13.258 13.258 0 0 0-0.622-0.02c-3.914-0.024-9.478-4.969-7.689-10.472 0.892-2.748 3.384-4.916 6.244-5.411 1.076-0.186 1.165-0.118 1.546-0.116 14.428 0.137 27.672 12.525 27.817 27.817l0.001 40.501a251.027 251.027 0 0 1 50.229-5.44 205.131 205.131 0 0 1 5.771 0.045z m528 33.007v-75.918c-0.089-27.542-19.448-53.551-45.718-61.366-29.209-8.689-63.796 6.157-76.791 35.373-3.631 8.162-5.462 17.111-5.491 25.993v43.083a251.254 251.254 0 0 1 55.998 5.372c-0.008-13.55-0.036-27.1 0.002-40.65 0.141-14.404 12.661-27.77 27.985-27.818 0.158 0 0.315 0.009 0.472 0.013 6.678 0.574 10.399 11.044 3.477 14.953a8.009 8.009 0 0 1-2.57 0.917c-2.188 0.378-4.343 0.288-6.3 1.173-4.166 1.884-7.051 6.249-7.064 10.953V221.4c15.801 4.441 31.151 10.442 45.768 17.956A242.9 242.9 0 0 1 840 244.931z" fill="#01B49C" /></svg>